<?xml version="1.0" encoding="UTF-8"?>
<!DOCTYPE svg PUBLIC "-//W3C//DTD SVG 1.1//EN" "http://www.w3.org/Graphics/SVG/1.1/DTD/svg11.dtd">
<!-- Creator: CorelDRAW (Versión de evaluación) -->
<svg xmlns="http://www.w3.org/2000/svg" xml:space="preserve" width="111.999mm" height="21.7415mm" version="1.1" style="shape-rendering:geometricPrecision; text-rendering:geometricPrecision; image-rendering:optimizeQuality; fill-rule:evenodd; clip-rule:evenodd"
viewBox="0 0 23541.44 4569.91"
 xmlns:xlink="http://www.w3.org/1999/xlink"
 xmlns:xodm="http://www.corel.com/coreldraw/odm/2003">
 <defs>
  <style type="text/css">
   <![CDATA[
    .fil0 {fill:#201E1E;fill-rule:nonzero}
   ]]>
  </style>
 </defs>
 <g id="Capa_x0020_1">
  <metadata id="CorelCorpID_0Corel-Layer"/>
  <path class="fil0" d="M175.6 4569.91c-54.02,0 -96.79,-15.74 -128.32,-47.27 -31.51,-31.51 -47.27,-74.28 -47.27,-128.32l0 -2125.11c3.01,-234.11 59.3,-444.98 168.85,-632.58 109.55,-187.6 258.14,-335.43 445.74,-443.49 187.6,-108.06 398.46,-162.1 632.58,-162.1 240.12,0 454.75,54.8 643.84,164.35 189.11,109.55 338.43,258.87 447.98,447.98 109.55,189.09 164.33,403.72 164.33,643.84 0,237.12 -53.26,450.23 -159.83,639.34 -106.55,189.09 -251.37,338.41 -434.47,447.98 -183.1,109.55 -390.2,164.33 -621.33,164.33 -201.11,0 -383.45,-42.77 -547.05,-128.32 -163.57,-85.55 -294.9,-198.84 -393.94,-339.92l0 1323.69c0,54.04 -15.76,96.81 -47.27,128.32 -31.53,31.53 -72.79,47.27 -123.82,47.27zm1071.56 -1346.2c174.1,0 330.17,-40.53 468.25,-121.58 138.08,-81.03 246.89,-192.85 326.43,-335.43 79.54,-142.57 119.31,-302.4 119.31,-479.49 0,-180.09 -39.77,-340.68 -119.31,-481.76 -79.54,-141.06 -188.35,-252.88 -326.43,-335.43 -138.08,-82.54 -294.14,-123.8 -468.25,-123.8 -171.1,0 -325.67,41.26 -463.75,123.8 -138.08,82.54 -246.11,194.37 -324.16,335.43 -78.04,141.08 -117.06,301.67 -117.06,481.76 0,177.09 39.01,336.92 117.06,479.49 78.04,142.57 186.08,254.4 324.16,335.43 138.08,81.05 292.65,121.58 463.75,121.58z"/>
  <path id="_1" class="fil0" d="M3714.47 3516.36c-120.06,0 -227.37,-33.02 -321.91,-99.04 -94.57,-66.04 -168.09,-157.6 -220.62,-274.66 -52.53,-117.06 -78.8,-252.13 -78.8,-405.21l0 -2566.35c0,-51.03 15.76,-92.3 47.27,-123.82 31.53,-31.51 72.79,-47.27 123.82,-47.27 51.01,0 92.3,15.76 123.8,47.27 31.53,31.53 47.27,72.79 47.27,123.82l0 2566.35c0,129.08 26.27,234.13 78.8,315.16 52.53,81.05 119.31,121.58 200.36,121.58l112.56 0c45.02,0 81.05,15.74 108.06,47.27 27.01,31.51 40.53,72.79 40.53,123.8 0,51.03 -18.77,92.3 -56.29,123.82 -37.52,31.51 -86.28,47.27 -146.32,47.27l-58.54 0z"/>
  <path id="_2" class="fil0" d="M5524.42 3543.37c-213.11,0 -403.72,-44.27 -571.79,-132.82 -168.09,-88.53 -300.91,-218.37 -398.46,-389.45 -97.55,-171.1 -146.34,-379.71 -146.34,-625.83l0 -1170.63c0,-48.03 16.52,-88.53 49.52,-121.55 33.02,-33.02 73.55,-49.52 121.58,-49.52 51.01,0 93.05,16.5 126.05,49.52 33.02,33.02 49.54,73.53 49.54,121.55l0 1170.63c0,186.08 35.27,339.17 105.79,459.23 70.54,120.06 166.6,210.11 288.15,270.14 121.58,60.03 258.89,90.05 411.98,90.05 147.07,0 279.89,-28.5 398.46,-85.53 118.55,-57.05 212.36,-135.07 281.39,-234.13 69.05,-99.04 103.56,-211.6 103.56,-337.67l247.63 0c-9,189.09 -60.79,357.94 -155.33,506.52 -94.54,148.56 -221.35,265.64 -380.45,351.17 -159.07,85.55 -336.18,128.32 -531.28,128.32zm990.53 -27.01c-51.03,0 -92.3,-15.76 -123.82,-47.27 -31.51,-31.53 -47.27,-74.28 -47.27,-128.32l0 -2116.12c0,-51.01 15.76,-92.3 47.27,-123.8 31.53,-31.53 72.79,-47.27 123.82,-47.27 51.01,0 93.05,15.74 126.05,47.27 33.02,31.51 49.54,72.79 49.54,123.8l0 2116.12c0,54.04 -16.52,96.79 -49.54,128.32 -33,31.51 -75.04,47.27 -126.05,47.27z"/>
  <path id="_3" class="fil0" d="M8464.47 3516.36c-159.07,0 -300.89,-37.52 -425.47,-112.56 -124.56,-75.04 -222.87,-177.84 -294.9,-308.42 -72.03,-130.57 -108.06,-279.89 -108.06,-447.98l0 -2201.67c0,-51.01 15.76,-93.05 47.27,-126.05 31.53,-33.02 72.79,-49.54 123.82,-49.54 51.03,0 93.05,16.52 126.07,49.54 33,33 49.52,75.04 49.52,126.05l0 2201.67c0,153.08 45.02,278.4 135.07,375.95 90.05,97.55 205.61,146.32 346.67,146.32l121.58 0c48.03,0 87.04,16.52 117.06,49.54 30.02,33 45.02,75.04 45.02,126.05 0,51.03 -18.01,92.3 -54.02,123.82 -36.03,31.51 -81.05,47.27 -135.07,47.27l-94.57 0zm-1121.09 -2071.09c-45.02,0 -82.54,-14.25 -112.56,-42.77 -30.02,-28.5 -45.02,-63.77 -45.02,-105.81 0,-45.02 15.01,-81.79 45.02,-110.31 30.02,-28.5 67.53,-42.75 112.56,-42.75l1148.12 0c45.02,0 82.54,14.25 112.56,42.75 30.02,28.52 45.02,65.29 45.02,110.31 0,42.04 -15.01,77.31 -45.02,105.81 -30.02,28.52 -67.53,42.77 -112.56,42.77l-1148.12 0z"/>
  <path id="_4" class="fil0" d="M10432 3538.87c-240.12,0 -454.73,-54.02 -643.82,-162.08 -189.11,-108.06 -337.7,-256.65 -445.74,-445.74 -108.06,-189.11 -162.1,-403.72 -162.1,-643.84 0,-243.13 54.04,-459.25 162.1,-648.34 108.04,-189.11 256.62,-337.67 445.74,-445.74 189.09,-108.06 403.7,-162.1 643.82,-162.1 240.15,0 454,54.04 641.59,162.1 187.6,108.06 335.43,256.62 443.49,445.74 108.06,189.09 163.59,405.21 166.6,648.34 0,240.12 -54.78,454.73 -164.35,643.84 -109.55,189.09 -258.14,337.67 -445.74,445.74 -187.6,108.06 -401.45,162.08 -641.59,162.08zm0 -315.16c174.1,0 330.19,-40.53 468.25,-121.58 138.08,-81.03 246.14,-192.1 324.18,-333.18 78.04,-141.06 117.06,-301.65 117.06,-481.74 0,-180.09 -39.01,-341.44 -117.06,-484.01 -78.04,-142.57 -186.1,-254.38 -324.18,-335.43 -138.05,-81.05 -294.14,-121.55 -468.25,-121.55 -174.08,0 -330.17,40.5 -468.25,121.55 -138.05,81.05 -246.87,192.85 -326.41,335.43 -79.54,142.57 -119.33,303.92 -119.33,484.01 0,180.09 39.79,340.68 119.33,481.74 79.54,141.08 188.35,252.15 326.41,333.18 138.08,81.05 294.17,121.58 468.25,121.58z"/>
  <path id="_5" class="fil0" d="M13606.19 3538.87c-234.11,0 -444.98,-54.02 -632.58,-162.08 -187.6,-108.06 -336.18,-255.89 -445.74,-443.49 -109.55,-187.6 -165.84,-398.46 -168.85,-632.6l0 -2125.11c0,-54.02 15.76,-96.79 47.27,-128.32 31.53,-31.51 74.3,-47.27 128.32,-47.27 51.03,0 92.3,15.76 123.82,47.27 31.51,31.53 47.27,74.3 47.27,128.32l0 1323.71c99.04,-141.08 230.37,-254.4 393.94,-339.95 163.59,-85.55 345.94,-128.32 547.05,-128.32 231.13,0 438.23,54.8 621.33,164.35 183.1,109.55 327.92,258.87 434.47,447.98 106.57,189.09 159.83,402.2 159.83,639.34 0,240.12 -54.78,454.73 -164.33,643.84 -109.55,189.09 -258.87,338.41 -447.98,447.98 -189.09,109.55 -403.72,164.33 -643.84,164.33zm0 -315.16c174.1,0 330.17,-41.28 468.25,-123.82 138.08,-82.54 246.89,-194.34 326.43,-335.43 79.54,-141.06 119.31,-301.65 119.31,-481.74 0,-177.11 -39.77,-336.94 -119.31,-479.51 -79.54,-142.57 -188.35,-254.38 -326.43,-335.43 -138.08,-81.05 -294.14,-121.55 -468.25,-121.55 -171.1,0 -325.67,40.5 -463.75,121.55 -138.08,81.05 -246.11,192.85 -324.16,335.43 -78.04,142.57 -117.06,302.4 -117.06,479.51 0,180.09 39.01,340.68 117.06,481.74 78.04,141.08 186.08,252.88 324.16,335.43 138.08,82.54 292.65,123.82 463.75,123.82z"/>
  <path id="_6" class="fil0" d="M16627.29 3538.87c-231.13,0 -438.23,-54.78 -621.33,-164.33 -183.1,-109.57 -327.92,-258.89 -434.49,-447.98 -106.55,-189.11 -159.83,-402.23 -159.83,-639.34 0,-240.12 54.78,-454.75 164.35,-643.84 109.55,-189.11 258.87,-338.43 447.98,-447.98 189.09,-109.55 402.2,-164.35 639.32,-164.35 237.14,0 449.5,54.8 637.09,164.35 187.6,109.55 336.18,258.87 445.74,447.98 109.55,189.09 165.84,403.72 168.85,643.84l-139.59 108.06c0,216.1 -50.28,410.46 -150.81,583.05 -100.56,172.59 -237.14,309.15 -409.73,409.71 -172.59,100.56 -368.45,150.83 -587.55,150.83zm36.01 -315.16c174.1,0 329.44,-40.53 466,-121.58 136.58,-81.03 244.64,-192.85 324.18,-335.43 79.54,-142.57 119.31,-302.4 119.31,-479.49 0,-180.09 -39.77,-340.68 -119.31,-481.76 -79.54,-141.06 -187.6,-252.88 -324.18,-335.43 -136.56,-82.54 -291.89,-123.8 -466,-123.8 -171.08,0 -325.65,41.26 -463.73,123.8 -138.08,82.54 -247.63,194.37 -328.68,335.43 -81.05,141.08 -121.58,301.67 -121.58,481.76 0,177.09 40.53,336.92 121.58,479.49 81.05,142.57 190.6,254.4 328.68,335.43 138.08,81.05 292.65,121.58 463.73,121.58zm1076.08 292.65c-51.03,0 -93.05,-15.76 -126.07,-47.27 -33.02,-31.53 -49.52,-72.79 -49.52,-123.82l0 -769.89 85.55 -355.69 265.64 67.53 0 1058.05c0,51.03 -16.52,92.3 -49.54,123.82 -33,31.51 -75.04,47.27 -126.05,47.27z"/>
  <path id="_7" class="fil0" d="M20701.94 3516.36c-51.03,0 -93.05,-16.5 -126.07,-49.52 -33.02,-33.02 -49.52,-73.55 -49.52,-121.58l0 -1170.61c0,-186.1 -35.27,-339.19 -105.81,-459.25 -70.54,-120.06 -166.58,-210.11 -288.15,-270.14 -121.55,-60.03 -258.87,-90.05 -411.96,-90.05 -147.07,0 -279.89,28.52 -398.46,85.55 -118.57,57.03 -212.36,135.07 -281.41,234.11 -69.03,99.06 -103.54,211.62 -103.54,337.7l-247.63 0c5.99,-189.11 57.03,-357.96 153.06,-506.52 96.06,-148.59 223.62,-265.64 382.72,-351.19 159.07,-85.55 336.16,-128.32 531.28,-128.32 213.09,0 403.7,44.29 571.79,132.82 168.09,88.55 300.91,218.37 398.46,389.47 97.55,171.08 146.34,379.69 146.34,625.83l0 1170.61c0,48.03 -16.52,88.55 -49.54,121.58 -33,33.02 -73.53,49.52 -121.55,49.52zm-1936.02 0c-54.02,0 -96.79,-15.76 -128.32,-47.27 -31.51,-31.53 -47.27,-72.79 -47.27,-123.82l0 -2116.12c0,-54.02 15.76,-96.79 47.27,-128.3 31.53,-31.53 74.3,-47.27 128.32,-47.27 51.03,0 92.3,15.74 123.82,47.27 31.51,31.51 47.27,74.28 47.27,128.3l0 2116.12c0,51.03 -15.76,92.3 -47.27,123.82 -31.53,31.51 -72.79,47.27 -123.82,47.27z"/>
  <path id="_8" class="fil0" d="M21922.09 2692.42l-211.62 -229.61 1539.81 -1391.25c36.03,-33.02 73.55,-48.76 112.58,-47.27 39.01,1.51 75.04,20.26 108.04,56.29 33.02,36.01 48.79,74.28 47.29,114.81 -1.51,40.53 -20.26,75.8 -56.29,105.81l-1539.81 1391.22zm-112.56 823.94c-51.03,0 -92.3,-15.76 -123.82,-47.27 -31.51,-31.53 -47.27,-72.79 -47.27,-123.82l0 -3174.17c0,-51.03 15.76,-92.3 47.27,-123.82 31.53,-31.51 72.79,-47.27 123.82,-47.27 51.01,0 92.3,15.76 123.8,47.27 31.53,31.53 47.29,72.79 47.29,123.82l0 3174.17c0,51.03 -15.76,92.3 -47.29,123.82 -31.51,31.51 -72.79,47.27 -123.8,47.27zm1665.88 -22.51c-39.03,33.02 -79.56,47.27 -121.58,42.77 -42.02,-4.5 -78.04,-26.27 -108.06,-65.29l-1004.03 -1233.64 243.13 -216.12 1013.05 1247.16c30.02,36.03 43.51,74.28 40.5,114.81 -2.98,40.53 -24,77.29 -63.02,110.31z"/>
 </g>
</svg>
